<svg xmlns="http://www.w3.org/2000/svg" viewBox="0 0 100 100">
  <defs>
    <linearGradient id="tv-gradient" x1="0%" y1="0%" x2="100%" y2="100%">
      <stop offset="0%" style="stop-color:#374151; stop-opacity:1" />
      <stop offset="100%" style="stop-color:#111827; stop-opacity:1" />
    </linearGradient>
    <linearGradient id="screen-gradient" x1="0%" y1="0%" x2="100%" y2="100%">
      <stop offset="0%" style="stop-color:#06b6d4; stop-opacity:1" />
      <stop offset="100%" style="stop-color:#3b82f6; stop-opacity:1" />
    </linearGradient>
  </defs>
  
  <!-- TV Body -->
  <rect x="5" y="20" width="90" height="60" rx="10" ry="10" fill="url(#tv-gradient)" />
  
  <!-- TV Screen -->
  <rect x="15" y="28" width="70" height="44" rx="3" ry="3" fill="url(#screen-gradient)" />
  
  <!-- Soccer Ball -->
  <circle cx="50" cy="50" r="12" fill="white" />
  <g fill="black">
    <path d="M50,38 l4.7,3.4 l-1.8,5.4 h-5.8 l-1.8,-5.4z" />
    <path d="M50,62 l-4.7,-3.4 l1.8,-5.4 h5.8 l1.8,5.4z" />
    <path d="M42.4,43.2 l4.7,3.4 v-6.8 l-4.7,-3.4z" />
    <path d="M57.6,56.8 l-4.7,-3.4 v6.8 l4.7,3.4z" />
    <path d="M42.4,56.8 l-4.7,-3.4 l0,-6.8 l4.7,3.4z" />
    <path d="M57.6,43.2 l4.7,-3.4 v6.8 l-4.7,-3.4z" />
  </g>

  <!-- TV Stand -->
  <path d="M35 80 L 30 90 H 70 L 65 80 Z" fill="#374151" />
</svg>
